<?xml version="1.0" standalone="no"?><!DOCTYPE svg PUBLIC "-//W3C//DTD SVG 1.1//EN" "http://www.w3.org/Graphics/SVG/1.1/DTD/svg11.dtd"><svg t="1553951518436" class="icon" style="" viewBox="0 0 1024 1024" version="1.1" xmlns="http://www.w3.org/2000/svg" p-id="4271" xmlns:xlink="http://www.w3.org/1999/xlink" width="200" height="200"><defs><style type="text/css"></style></defs><path fill="#fefefe" d="M406.611741 961.164906c0 0-35.815717-99.391684-110.62861-140.005684-74.812893-40.608883-119.701243-87.636966-115.426893-167.790494 0 0 40.614 149.627832 195.58042 133.592624 0 0 127.176494-231.647871 131.455961-286.821471 4.275373-55.17667 16.030092-84.035952-27.789926-187.698916 0 0 76.948533 56.485479 82.295308 185.880501 0 0 222.292805-44.808532 278.936897-197.641359 0 0-7.482415 124.245745-167.790494 199.459774-160.310126 75.210959-183.820586 304.995389-173.138292 359.494631 10.691503 54.505381 19.241226 95.113241 74.814939 101.530394L406.611741 961.164906z" p-id="4272"></path><path d="M322.698586 653.367705c0 0 34.437323-7.198959 53.780881 13.083993 6.448876 6.760984 11.220552 16.57756 12.481266 30.736025 5.037736 56.613392-25.648147 64.12446-25.648147 64.12446s-72.216765-5.115508-74.814939-61.990866C285.898449 642.449028 322.698586 653.367705 322.698586 653.367705z" p-id="4273"></path><path d="M416.603303 346.891592c11.384281 4.427846 40.756239-26.971281 40.756239-26.971281s-92.983741-55.576783-175.275979 23.51046c0 0 27.789926 17.104563 42.75271 27.789926 14.959713 10.683317 95.113241 60.919465 132.523269-8.549723C457.359542 362.670973 409.446299 344.107175 416.603303 346.891592z" p-id="4274"></path><path d="M466.97862 266.482237c0 0-91.911316 43.820018-118.631888-45.956681-26.718525-89.772606-61.98268-137.863904-82.293261-146.416697 0 0 92.983741-38.473243 191.30607 26.720571 98.322329 65.193815 44.889373 152.830781 44.889373 152.830781s-27.789926-51.297316-63.060221-67.332525C439.188694 186.327686 477.665007 238.703567 466.97862 266.482237z" p-id="4275"></path><path d="M514.360767 282.419208c0 0 19.167548-73.122391 69.091588-69.590961 49.92404 3.52836 72.615854 5.804193 81.696674-0.124843 0 0-7.059789 161.496138-137.170103 98.461499 0 0 44.880163-29.753651 50.430576-46.899146C578.409502 264.264733 532.010753 292.00247 514.360767 282.419208z" p-id="4276"></path><path d="M600.095407 467.493344c0 0 68.583005 1.514493 73.623811-52.950979 5.043876-54.466496-39.84038-66.062602-64.043618-54.466496-24.206308 11.599176-59.384505 59.648518-11.596106 107.423615" p-id="4277"></path><path d="M714.065112 243.080248c0 0 50.929949 92.287893 71.105455 90.27198 20.170388-2.015913 37.820374-29.756721 28.744671-48.414663C804.835442 266.281669 744.824673 243.584738 714.065112 243.080248z" p-id="4278"></path><path d="M827.796386 96.928586c0 0 93.098351 50.667983 95.983051 105.457844 2.885723 54.785767-35.011398 81.894172-55.613622 85.848227 0 0-0.821715-59.896158-15.650445-80.493266 0 0 7.828292 52.316529-16.068977 68.794829 0 0-47.788399-11.945053-37.896098-56.438407C808.433386 175.609577 833.56681 166.142971 827.796386 96.928586z" p-id="4279"></path><path d="M860.570837 325.765435c0 0 15.093766 64.22986 77.313853 37.993313 62.210877-26.233478 32.229029-15.848966 32.229029-15.848966s-33.730219-81.07041-103.443977-47.230698c0 0 21.739117 18.104333 30.737048 21.10262C897.40679 321.782727 867.957061 329.751213 860.570837 325.765435z" p-id="4280"></path><path d="M186.969299 437.482843c0 0-87.636966 55.574736-91.908246 130.386606-4.27742 74.806753 54.499242 75.879178 54.499242 75.879178s3.859911 0.74906 9.830903 1.069355c-1.088798-2.862187-7.499811-22.398126 2.149966-65.313541 0 0 6.558369 41.756009 24.793686 62.749136 18.400069-4.934382 37.543058-18.078751 41.249473-50.873668C235.063667 525.116739 176.281889 498.402307 186.969299 437.482843z" p-id="4281"></path><path d="M121.085776 670.826332c0 0 25.723871-2.331092 39.709397-12.537548-7.956206-4.466732-81.442894-42.983977-112.762203 37.829584 0 0 30.302143 48.738028 83.359546 26.718525 32.636305-13.545504 36.520775-34.676777 34.679847-48.943712C163.5581 674.608471 147.411351 678.568666 121.085776 670.826332z" p-id="4282"></path><path d="M200.988594 665.906276c6.572696-6.380314 22.562878-20.73116 38.275745-25.89681 0 0-26.14752 17.692964-35.289738 27.865651 10.083659 2.974751 43.220361 10.955516 67.0153-4.472871 29.847795-19.35686 28.199249-46.37419 32.473599-68.816319C303.4635 594.585927 207.939913 594.60537 200.988594 665.906276z" p-id="4283"></path></svg>